<svg width="30" height="30" viewBox="0 0 30 30" fill="none" xmlns="http://www.w3.org/2000/svg">
<g clip-path="url(#clip0_24_1376)">
<path d="M23.2113 4.99777C22.4395 3.53076 21.2311 2.30843 19.7342 1.42179C18.2379 0.539077 16.4318 7.2713e-05 14.4715 7.2713e-05C12.0552 -0.00590385 10.0477 0.623627 8.53253 1.49544C7.01131 2.36415 6.35542 3.3756 6.35542 3.3756C6.09977 3.59744 5.95557 3.92017 5.96161 4.25779C5.96852 4.59587 6.12421 4.91322 6.38776 5.12404L8.49321 6.81037C8.92235 7.15396 9.53653 7.14107 9.95073 6.78001C9.95073 6.78001 10.2094 6.31255 11.0199 5.84955C11.8349 5.38958 12.8917 5.0191 14.4715 5.01412C15.8495 5.01113 17.0509 5.52535 17.8709 6.228C18.2782 6.57611 18.5825 6.96593 18.769 7.32253C18.957 7.68207 19.0256 7.99636 19.0247 8.23507C19.0207 9.04167 18.864 9.56925 18.6378 10.0188C18.4652 10.3545 18.24 10.6524 17.95 10.9413C17.5174 11.3739 16.9306 11.7737 16.2722 12.1412C15.6133 12.5132 14.9032 12.8404 14.1856 13.2358C13.3666 13.6893 12.4998 14.3407 11.8594 15.3184C11.5401 15.8018 11.2904 16.3547 11.1319 16.938C10.9712 17.5218 10.8987 18.134 10.8987 18.7586C10.8987 19.4249 10.8987 19.9719 10.8987 19.9719C10.8987 20.6 11.4078 21.1092 12.036 21.1092H14.7759C15.404 21.1092 15.9132 20.6 15.9132 19.9719C15.9132 19.9719 15.9132 19.4249 15.9132 18.7586C15.9132 18.5179 15.9406 18.3628 15.967 18.2643C16.0123 18.1171 16.0376 18.0803 16.1117 17.9908C16.1873 17.9057 16.3399 17.7755 16.6213 17.6198C17.0326 17.3886 17.6935 17.0763 18.4418 16.672C19.5622 16.0593 20.9243 15.2279 22.073 13.8559C22.6444 13.1711 23.1496 12.3466 23.4982 11.3968C23.8498 10.447 24.0397 9.37935 24.0388 8.23507C24.0377 7.07585 23.7234 5.97488 23.2113 4.99777Z" fill="#B06118"/>
<path d="M13.4068 23.8148C11.6986 23.8148 10.3137 25.2002 10.3137 26.9079C10.3137 28.6151 11.6987 30 13.4068 30C15.114 30 16.4983 28.6151 16.4983 26.9079C16.4983 25.2002 15.114 23.8148 13.4068 23.8148Z" fill="#B06118"/>
</g>
<defs>
<clipPath id="clip0_24_1376">
<rect width="30" height="30" fill="white"/>
</clipPath>
</defs>
</svg>
