<svg width="30" height="30" viewBox="0 0 30 30" fill="none" xmlns="http://www.w3.org/2000/svg">
<path d="M5.87113 20.2862L8.57977 15.5178L10.7983 16.7992L7.7812 11.5688L1.80005 11.5817L3.93186 12.8407C3.93186 12.8407 2.66056 14.9769 2.37974 15.4688C1.92782 16.2573 1.69591 17.4115 2.19795 18.214C2.27447 18.3401 3.71743 20.9103 4.88131 22.9295C4.90551 22.0336 5.36244 21.1995 5.87354 20.2862L5.87113 20.2862Z" fill="#195608"/>
<path d="M5.66361 24.2893C5.72831 24.4007 5.79363 24.5116 5.85491 24.6208C6.15153 25.134 6.86565 25.8082 9.64185 25.7593C10.248 25.748 12.6623 25.7649 13.3826 25.7705L13.4175 20.3409L6.35015 20.2919C5.55164 21.7152 4.87461 22.9212 5.66361 24.2893Z" fill="#195608"/>
<path d="M11.5732 2.40002H11.1911C10.6002 2.40002 9.65638 2.68084 8.31193 5.11035C8.01874 5.63991 6.79695 7.72276 6.43286 8.34297L11.1157 11.0893L14.695 4.99275C13.8593 3.58918 13.1535 2.40002 11.5732 2.40002Z" fill="#195608"/>
<path d="M21.532 10.5935L24.5108 5.408L22.3559 6.62534C22.3559 6.62534 21.1375 4.45358 20.855 3.96673C20.3986 3.18054 19.5139 2.40392 18.5685 2.43543C18.4232 2.43937 15.4737 2.40392 13.1427 2.40167C13.9053 2.87154 14.4005 3.6831 14.9334 4.58305L14.9357 4.57854L17.713 9.31203L15.4934 10.5935H21.532Z" fill="#195608"/>
<path d="M24.0079 20.3199L18.5214 20.3593V17.797L15.5016 23.0274L18.5023 28.1999L18.5277 25.7254C18.5277 25.7254 21.0156 25.7564 21.5801 25.7535C22.4896 25.7496 23.6028 25.3748 24.0491 24.5379C24.1183 24.4102 25.6237 21.8721 26.7898 19.8579C26.0042 20.2833 25.0508 20.3053 24.0069 20.3183L24.0079 20.3199Z" fill="#195608"/>
<path d="M26.8607 14.3202C26.5501 13.7996 25.3575 11.7022 25.0018 11.0746L20.2819 13.7574L23.7717 19.9052C25.4037 19.8844 26.7864 19.8675 27.5766 18.5017C27.6418 18.3885 27.7054 18.2782 27.7696 18.1668C28.0639 17.6558 28.2924 16.6991 26.8607 14.3202Z" fill="#195608"/>
</svg>
