<svg width="24" height="24" viewBox="0 0 24 24" fill="none" xmlns="http://www.w3.org/2000/svg">
<path d="M19 15L15 11M19 11L15 15" stroke="black" stroke-width="1.5" stroke-linecap="round"/>
<path fill-rule="evenodd" clip-rule="evenodd" d="M10.2333 4.42498C11.1463 3.20769 13.0833 3.85339 13.0833 5.37498V19.7211C13.0833 21.251 11.1289 21.8913 10.2237 20.658L7.14073 16.4583H5.16667C3.85499 16.4583 2.79167 15.395 2.79167 14.0833V10.9166C2.79167 9.60497 3.85499 8.54164 5.16667 8.54164H7.14583L10.2333 4.42498ZM11.5 5.37498L8.4125 9.49164C8.11348 9.89033 7.64419 10.125 7.14583 10.125H5.16667C4.72945 10.125 4.375 10.4794 4.375 10.9166V14.0833C4.375 14.5205 4.72945 14.875 5.16667 14.875H7.14073C7.64483 14.875 8.1188 15.115 8.4171 15.5214L11.5 19.7211V5.37498Z" fill="#262626"/>
</svg>
