<svg width="24" height="24" viewBox="0 0 24 24" fill="none" xmlns="http://www.w3.org/2000/svg">
<g clip-path="url(#clip0_22_653)">
<path fill-rule="evenodd" clip-rule="evenodd" d="M10.2334 4.42501C11.1463 3.20772 13.0833 3.85342 13.0833 5.37502V19.7211C13.0833 21.251 11.129 21.8913 10.2237 20.6581L7.14075 16.4583H5.16669C3.85501 16.4583 2.79169 15.3951 2.79169 14.0833V10.9167C2.79169 9.605 3.85501 8.54167 5.16669 8.54167H7.14585L10.2334 4.42501ZM11.5 5.37501L8.41252 9.49167C8.1135 9.89037 7.64421 10.125 7.14585 10.125H5.16669C4.72946 10.125 4.37502 10.4795 4.37502 10.9167V14.0833C4.37502 14.5206 4.72946 14.875 5.16669 14.875H7.14075C7.64485 14.875 8.11882 15.115 8.41712 15.5214L11.5 19.7211V5.37501Z" fill="#262626"/>
<path d="M14.8358 6.30477C14.7533 5.8219 15.1237 5.375 15.6136 5.375C15.9836 5.375 16.3013 5.63467 16.3659 5.99902C16.5858 7.23816 17.0417 10.097 17.0417 12.5C17.0417 14.9029 16.5858 17.7618 16.3659 19.001C16.3013 19.3653 15.9836 19.625 15.6136 19.625C15.1237 19.625 14.7533 19.1781 14.8358 18.6953C15.0683 17.3349 15.4583 14.7225 15.4583 12.5C15.4583 10.2775 15.0683 7.66505 14.8358 6.30477Z" fill="#262626"/>
<path d="M18.9496 6.95834C18.4149 6.95834 18.0235 7.50774 18.1473 8.02787C18.3684 8.95661 18.625 10.4717 18.625 12.5C18.625 14.5283 18.3684 16.0434 18.1473 16.9721C18.0235 17.4923 18.4149 18.0417 18.9496 18.0417C19.2359 18.0417 19.4938 17.8789 19.583 17.607C19.8152 16.8992 20.2084 15.2893 20.2084 12.5C20.2084 9.71075 19.8152 8.10077 19.583 7.39307C19.4938 7.12108 19.2359 6.95834 18.9496 6.95834Z" fill="#262626"/>
</g>
<defs>
<clipPath id="clip0_22_653">
<rect width="19" height="19" fill="white" transform="translate(2 3)"/>
</clipPath>
</defs>
</svg>
