<svg width="30" height="30" viewBox="0 0 30 30" fill="none" xmlns="http://www.w3.org/2000/svg">
<path d="M9.6375 3.59998C9.46339 3.59996 9.29271 3.64844 9.14459 3.73996C8.99647 3.83148 8.87676 3.96244 8.79888 4.11816L7.65264 6.41248H22.8724L21.7261 4.11816C21.6482 3.96244 21.5285 3.83148 21.3804 3.73996C21.2323 3.64844 21.0616 3.59996 20.8875 3.59998H9.6375Z" fill="#F7F2FA"/>
<path d="M2.1375 7.3501C1.88887 7.35012 1.65043 7.4489 1.47462 7.62471C1.29881 7.80052 1.20003 8.03896 1.2 8.2876V25.1626C1.20003 25.4112 1.29881 25.6497 1.47462 25.8255C1.65043 26.0013 1.88887 26.1001 2.1375 26.1001H28.3875C28.6361 26.1001 28.8746 26.0013 29.0504 25.8255C29.2262 25.6497 29.325 25.4112 29.325 25.1626V8.2876C29.325 8.03896 29.2262 7.80052 29.0504 7.62471C28.8746 7.4489 28.6361 7.35012 28.3875 7.3501H2.1375ZM5.8875 11.1001C6.01061 11.1001 6.13252 11.1243 6.24627 11.1715C6.36001 11.2186 6.46336 11.2876 6.55041 11.3747C6.63747 11.4617 6.70652 11.5651 6.75364 11.6788C6.80075 11.7926 6.825 11.9145 6.825 12.0376C6.825 12.1607 6.80075 12.2826 6.75364 12.3964C6.70652 12.5101 6.63747 12.6135 6.55041 12.7005C6.46336 12.7876 6.36001 12.8566 6.24627 12.9037C6.13252 12.9508 6.01061 12.9751 5.8875 12.9751C5.76439 12.9751 5.64248 12.9508 5.52874 12.9037C5.41499 12.8566 5.31164 12.7876 5.22459 12.7005C5.13753 12.6135 5.06848 12.5101 5.02136 12.3964C4.97425 12.2826 4.95 12.1607 4.95 12.0376C4.95 11.9145 4.97425 11.7926 5.02136 11.6788C5.06848 11.5651 5.13753 11.4617 5.22459 11.3747C5.31164 11.2876 5.41499 11.2186 5.52874 11.1715C5.64248 11.1243 5.76439 11.1001 5.8875 11.1001ZM15.2588 11.1019C18.3543 11.1019 20.8857 13.6259 20.8857 16.7214C20.8857 19.8169 18.3543 22.3483 15.2588 22.3483C12.1633 22.3483 9.63933 19.8169 9.63933 16.7214C9.63933 13.6259 12.1633 11.1019 15.2588 11.1019ZM15.2588 12.9788C13.1767 12.9788 11.5162 14.6393 11.5162 16.7214C11.5162 18.8036 13.1767 20.4733 15.2588 20.4733C17.341 20.4733 19.0107 18.8036 19.0107 16.7214C19.0107 14.6393 17.341 12.9788 15.2588 12.9788Z" fill="#F7F2FA"/>
</svg>
