<svg width="30" height="30" viewBox="0 0 30 30" fill="none" xmlns="http://www.w3.org/2000/svg">
<path d="M17.3145 26.1891V19.0241C20.0278 18.2888 22.5081 15.8994 22.2223 12.527L21.227 2.4487C21.2019 2.19409 20.9877 2 20.7318 2H15.9587L14.7125 4.65945L16.8981 5.57745C17.0938 5.65957 17.2502 5.82032 17.3271 6.01839C17.404 6.21636 17.3971 6.44051 17.3082 6.63331L15.5432 10.4574C15.4148 10.7354 15.1341 10.915 14.8279 10.915H14.8276C14.7135 10.915 14.6027 10.8906 14.4984 10.8424C14.1042 10.6606 13.9314 10.1917 14.1134 9.7975L15.5367 6.71363L13.3469 5.79384C13.1502 5.71133 12.9935 5.54978 12.9169 5.35071C12.8403 5.15175 12.8483 4.9268 12.9388 4.7337L14.2196 2H9.51781C9.2619 2 9.04771 2.19409 9.02253 2.4488L8.02669 12.5328C7.87589 14.265 8.3662 15.8111 9.44475 17.004C10.3002 17.9502 11.5286 18.6596 12.935 19.0262V26.1891C10.4451 26.5614 8.68232 28.0579 8.60428 28.1252C8.44662 28.261 8.39009 28.4804 8.46245 28.6755C8.53491 28.8705 8.72094 29 8.92906 29H21.3205C21.5285 29 21.7146 28.8706 21.7871 28.6755C21.8594 28.4804 21.8029 28.261 21.6452 28.1252C21.5672 28.0579 19.8044 26.5615 17.3145 26.1891Z" fill="#F7F2FA"/>
</svg>
