<svg width="30" height="30" viewBox="0 0 30 30" fill="none" xmlns="http://www.w3.org/2000/svg">
<path d="M5.87107 20.2862L8.5797 15.5178L10.7982 16.7992L7.78114 11.5687L1.79999 11.5817L3.93179 12.8406C3.93179 12.8406 2.6605 14.9769 2.37968 15.4688C1.92776 16.2572 1.69585 17.4115 2.19789 18.214C2.27441 18.3401 3.71737 20.9103 4.88125 22.9295C4.90545 22.0335 5.36238 21.1995 5.87347 20.2861L5.87107 20.2862Z" fill="#F7F2FA"/>
<path d="M5.66352 24.2893C5.72822 24.4007 5.79354 24.5116 5.85482 24.6208C6.15144 25.134 6.86556 25.8082 9.64176 25.7593C10.2479 25.748 12.6622 25.7648 13.3825 25.7705L13.4174 20.3408L6.35006 20.2919C5.55155 21.7151 4.87452 22.9212 5.66352 24.2893Z" fill="#F7F2FA"/>
<path d="M11.5732 2.40002H11.191C10.6001 2.40002 9.65628 2.68084 8.31184 5.11035C8.01865 5.63991 6.79686 7.72276 6.43277 8.34297L11.1156 11.0893L14.6949 4.99275C13.8592 3.58918 13.1535 2.40002 11.5732 2.40002Z" fill="#F7F2FA"/>
<path d="M21.5319 10.5934L24.5107 5.40794L22.3558 6.62528C22.3558 6.62528 21.1374 4.45352 20.8549 3.96667C20.3985 3.18048 19.5138 2.40386 18.5684 2.43537C18.4232 2.43931 15.4736 2.40386 13.1426 2.40161C13.9052 2.87148 14.4004 3.68304 14.9333 4.58298L14.9356 4.57848L17.7129 9.31197L15.4933 10.5934H21.5319Z" fill="#F7F2FA"/>
<path d="M24.0079 20.3199L18.5214 20.3593V17.797L15.5015 23.0274L18.5022 28.1999L18.5276 25.7254C18.5276 25.7254 21.0156 25.7564 21.5801 25.7535C22.4895 25.7496 23.6027 25.3748 24.049 24.5379C24.1182 24.4102 25.6236 21.8721 26.7898 19.8579C26.0041 20.2833 25.0507 20.3053 24.0068 20.3183L24.0079 20.3199Z" fill="#F7F2FA"/>
<path d="M26.8606 14.3202C26.55 13.7997 25.3574 11.7022 25.0017 11.0747L20.2817 13.7575L23.7715 19.9053C25.4036 19.8844 26.7863 19.8676 27.5764 18.5017C27.6417 18.3886 27.7053 18.2783 27.7695 18.1669C28.0638 17.6559 28.2923 16.6991 26.8606 14.3202Z" fill="#F7F2FA"/>
</svg>
