<svg width="30" height="30" viewBox="0 0 30 30" fill="none" xmlns="http://www.w3.org/2000/svg">
<path d="M10.9101 4L2.08607 8.40763L5.23811 11.5564L14.062 7.14891L10.9101 4ZM18.9447 4L15.7928 7.14891L24.6167 11.5564L27.7688 8.40768L18.9448 4.00006L18.9447 4ZM14.9274 7.86175L14.4151 8.11772V16.2413L14.9274 16.4972L15.4397 16.2413V8.11772L14.9274 7.86175ZM5.27813 12.8228L2 16.9164L9.94315 21.325L14.0619 17.2104L5.27813 12.8228V12.8228ZM24.5767 12.8228L15.7929 17.2103L19.9116 21.325L27.8547 16.9164L24.5766 12.8228L24.5767 12.8228ZM14.4151 18.3058L10.1211 22.5954L5.64926 20.1136V22.6215L14.4151 27V18.3058ZM15.4397 18.3058V27L24.2055 22.6215V20.1135L19.7336 22.5954L15.4397 18.3058Z" fill="#F7F2FA"/>
</svg>
