<svg width="30" height="30" viewBox="0 0 30 30" fill="none" xmlns="http://www.w3.org/2000/svg">
<path d="M21.8396 4.37977L15.2378 1.85822C14.9647 1.75438 14.652 1.79096 14.4107 1.95674C14.1694 2.12312 14.0201 2.39687 14.0201 2.69008V10.099H8.98702C8.33215 10.099 7.79999 10.6347 7.79999 11.2902C7.79999 11.8748 8.22359 12.3627 8.77994 12.4607L10.3617 27.2183C10.4578 28.1192 11.213 28.8 12.1192 28.8H17.7222C18.6278 28.8 19.3836 28.121 19.4797 27.2195L21.0621 12.463C21.6184 12.3651 22.0414 11.8748 22.0414 11.2902C22.0414 10.6347 21.511 10.099 20.8544 10.099H15.8124V3.98272L21.206 6.0435C21.6621 6.21932 22.1783 5.98923 22.3541 5.52964C22.5305 5.06945 22.2998 4.55559 21.8396 4.37977ZM18.826 22.1782L11.3263 25.0909L10.6059 18.3634L19.6101 14.8654L18.826 22.1782Z" fill="#F7F2FA"/>
</svg>
