<svg width="30" height="30" viewBox="0 0 30 30" fill="none" xmlns="http://www.w3.org/2000/svg">
<path d="M15.2625 2.38599C13.2774 2.38599 11.5125 1.80005 11.5125 1.80005V1.91724C11.5125 2.9118 11.9076 3.86563 12.6109 4.56889C13.3141 5.27215 14.268 5.66724 15.2625 5.66724C16.2571 5.66724 17.2109 5.27215 17.9142 4.56889C18.6174 3.86563 19.0125 2.9118 19.0125 1.91724V1.80005C19.0125 1.80005 17.2477 2.38599 15.2625 2.38599Z" fill="#F7F2FA"/>
<path d="M20.8875 2.50317C20.5658 5.30161 18.1459 7.48364 15.2625 7.48364C12.3791 7.48364 9.95919 5.30161 9.63751 2.50317L1.20001 5.43286L2.2547 12.1125L5.87052 12.5473C6.28536 12.6 6.28654 12.6 6.28654 13.0272L5.88751 28.05H24.6375L24.2385 13.0272C24.2262 12.617 24.2262 12.617 24.6545 12.5473L28.2703 12.1125L29.325 5.43286L20.8875 2.50317Z" fill="#F7F2FA"/>
</svg>
